{
  "asset": {
    "generator": "Khronos glTF Blender I/O v3.2.43",
    "version": "2.0"
  },
  "scene": 0,
  "scenes": [
    {
      "name": "Scene",
      "nodes": [
        0
      ]
    }
  ],
  "nodes": [
    {
      "mesh": 0,
      "name": "wooden_hammer_01"
    }
  ],
  "materials": [
    {
      "doubleSided": true,
      "name": "wooden_hammer_01",
      "normalTexture": {
        "index": 0
      },
      "pbrMetallicRoughness": {
        "baseColorTexture": {
          "index": 1
        },
        "metallicRoughnessTexture": {
          "index": 2
        }
      }
    }
  ],
  "meshes": [
    {
      "name": "Cube.027",
      "primitives": [
        {
          "attributes": {
            "POSITION": 0,
            "NORMAL": 1,
            "TEXCOORD_0": 2
          },
          "indices": 3,
          "material": 0
        }
      ]
    }
  ],
  "textures": [
    {
      "sampler": 0,
      "source": 0
    },
    {
      "sampler": 0,
      "source": 1
    },
    {
      "sampler": 0,
      "source": 2
    }
  ],
  "images": [
    {
      "mimeType": "image/jpeg",
      "name": "wooden_hammer_01_nor_gl",
      "uri": "textures/wooden_hammer_01_nor_gl_2k.jpg"
    },
    {
      "mimeType": "image/jpeg",
      "name": "wooden_hammer_01_diff",
      "uri": "textures/wooden_hammer_01_diff_2k.jpg"
    },
    {
      "mimeType": "image/jpeg",
      "name": "wooden_hammer_01_metal-wooden_hammer_01_rough",
      "uri": "textures/wooden_hammer_01_arm_2k.jpg"
    }
  ],
  "accessors": [
    {
      "bufferView": 0,
      "componentType": 5126,
      "count": 2508,
      "max": [
        0.05776631832122803,
        0.155205637216568,
        0.01169908419251442
      ],
      "min": [
        -0.05404520407319069,
        -0.12394478917121887,
        -0.01169908419251442
      ],
      "type": "VEC3"
    },
    {
      "bufferView": 1,
      "componentType": 5126,
      "count": 2508,
      "type": "VEC3"
    },
    {
      "bufferView": 2,
      "componentType": 5126,
      "count": 2508,
      "type": "VEC2"
    },
    {
      "bufferView": 3,
      "componentType": 5123,
      "count": 10851,
      "type": "SCALAR"
    }
  ],
  "bufferViews": [
    {
      "buffer": 0,
      "byteLength": 30096,
      "byteOffset": 0
    },
    {
      "buffer": 0,
      "byteLength": 30096,
      "byteOffset": 30096
    },
    {
      "buffer": 0,
      "byteLength": 20064,
      "byteOffset": 60192
    },
    {
      "buffer": 0,
      "byteLength": 21702,
      "byteOffset": 80256
    }
  ],
  "samplers": [
    {
      "magFilter": 9729,
      "minFilter": 9987
    }
  ],
  "buffers": [
    {
      "byteLength": 101960,
      "uri": "wooden_hammer_01.bin"
    }
  ]
}